<?xml version="1.0" standalone="no"?>
<!DOCTYPE svg PUBLIC "-//W3C//DTD SVG 20010904//EN"
 "http://www.w3.org/TR/2001/REC-SVG-20010904/DTD/svg10.dtd">
<svg version="1.0" xmlns="http://www.w3.org/2000/svg"
 width="260.000000pt" height="260.000000pt" viewBox="0 0 260.000000 260.000000"
 preserveAspectRatio="xMidYMid meet">
<metadata>
Created by potrace 1.11, written by Peter Selinger 2001-2013
</metadata>
<g transform="translate(0.000000,260.000000) scale(0.100000,-0.100000)"
fill="#000000" stroke="none">
<path d="M1190 2174 c-130 -17 -309 -68 -405 -116 -22 -11 -41 -21 -42 -23 -3
-1 20 -60 62 -162 l14 -32 93 38 c201 82 398 108 529 68 139 -42 209 -171 209
-389 l0 -67 -52 -5 c-29 -3 -129 -8 -223 -10 -348 -11 -564 -76 -696 -207 -96
-96 -139 -224 -125 -376 14 -150 80 -270 187 -342 89 -60 171 -83 314 -88 236
-10 374 38 516 178 44 44 82 79 85 77 2 -2 14 -53 27 -113 l23 -110 98 -3 97
-3 -4 643 c-4 699 -2 682 -61 803 -30 60 -113 143 -175 175 -74 37 -187 61
-316 65 -66 2 -136 1 -155 -1z m450 -986 c0 -184 -31 -278 -123 -375 -95 -100
-243 -151 -412 -141 -99 7 -172 36 -219 88 -46 51 -61 100 -60 195 1 245 190
336 712 344 l102 1 0 -112z"/>
</g>
</svg>
