<?xml version="1.0" standalone="no"?>
<!DOCTYPE svg PUBLIC "-//W3C//DTD SVG 20010904//EN"
 "http://www.w3.org/TR/2001/REC-SVG-20010904/DTD/svg10.dtd">
<svg version="1.0" xmlns="http://www.w3.org/2000/svg"
 width="260.000000pt" height="260.000000pt" viewBox="0 0 260.000000 260.000000"
 preserveAspectRatio="xMidYMid meet">
<metadata>
Created by potrace 1.11, written by Peter Selinger 2001-2013
</metadata>
<g transform="translate(0.000000,260.000000) scale(0.100000,-0.100000)"
fill="#000000" stroke="none">
<path d="M1182 2026 c-118 -23 -322 -93 -322 -111 0 -6 61 -159 65 -164 2 -2
37 10 77 27 122 51 231 75 338 74 154 0 220 -34 271 -137 27 -55 32 -77 36
-169 6 -99 5 -106 -13 -106 -150 -3 -418 -23 -482 -35 -231 -44 -378 -141
-433 -284 -31 -79 -31 -231 -1 -314 42 -116 133 -201 256 -240 101 -31 290
-31 392 1 85 26 177 85 238 153 24 27 46 49 49 49 3 0 8 -15 12 -33 4 -17 14
-62 22 -99 l15 -68 84 0 84 0 0 523 c0 307 -4 548 -10 585 -30 180 -115 281
-283 334 -82 26 -291 33 -395 14z m456 -878 c-4 -120 -7 -139 -32 -196 -38
-84 -120 -160 -207 -193 -55 -21 -81 -24 -184 -24 -110 0 -125 2 -170 26 -68
34 -105 95 -112 181 -10 124 37 210 141 259 104 48 220 66 530 78 l38 1 -4
-132z"/>
</g>
</svg>
