<?xml version="1.0" standalone="no"?>
<!DOCTYPE svg PUBLIC "-//W3C//DTD SVG 20010904//EN"
 "http://www.w3.org/TR/2001/REC-SVG-20010904/DTD/svg10.dtd">
<svg version="1.0" xmlns="http://www.w3.org/2000/svg"
 width="260.000000pt" height="260.000000pt" viewBox="0 0 260.000000 260.000000"
 preserveAspectRatio="xMidYMid meet">
<metadata>
Created by potrace 1.11, written by Peter Selinger 2001-2013
</metadata>
<g transform="translate(0.000000,260.000000) scale(0.100000,-0.100000)"
fill="#000000" stroke="none">
<path d="M1131 2590 c-556 -78 -987 -483 -1107 -1041 -26 -118 -26 -380 0
-498 59 -273 167 -474 360 -667 193 -193 394 -301 667 -360 118 -26 380 -26
498 0 273 59 474 167 667 360 193 193 301 394 360 667 14 62 18 127 18 249 0
122 -4 187 -18 249 -59 273 -167 474 -360 667 -190 189 -384 296 -646 355 -99
23 -340 33 -439 19z m348 -350 c157 -53 251 -160 303 -347 21 -75 22 -100 25
-608 2 -291 6 -545 8 -562 8 -43 31 -55 135 -68 l85 -10 3 -72 3 -72 -67 -21
c-37 -11 -97 -25 -134 -31 -88 -15 -164 5 -216 58 -37 37 -73 104 -74 137 0
14 -16 3 -64 -41 -118 -111 -248 -164 -402 -164 -115 -1 -182 18 -262 71 -111
75 -164 188 -164 351 0 109 20 178 71 255 95 142 249 208 554 239 84 8 173 18
200 21 l47 6 0 161 c-1 306 -53 418 -216 463 -162 43 -365 -14 -504 -143 l-45
-41 -33 39 c-31 37 -33 42 -22 73 19 59 86 153 139 194 84 66 194 113 316 133
83 13 244 3 314 -21z"/>
<path d="M1375 1198 c-170 -19 -220 -30 -279 -60 -95 -47 -128 -105 -134 -233
-4 -84 -2 -94 25 -145 39 -74 97 -105 197 -104 102 1 237 51 319 117 l27 23
-2 210 -3 209 -150 -17z"/>
</g>
</svg>
